<svg xmlns="http://www.w3.org/2000/svg" width="32" height="32"><g fill="none" fill-rule="evenodd"><circle cx="16" cy="16" r="16" fill="#2AA65E"/><path fill="#FFF" fill-rule="nonzero" d="M19.44 19.359c0-3.286-8.985-1.331-8.985-6.655 0-1.934 1.726-3.598 4.367-4.014V7.026h2.392v1.622c1.893.188 3.494.936 4.575 2.018l-1.372 1.788c-1.248-1.04-2.579-1.518-4.326-1.518-1.539 0-3.036.478-3.036 1.705 0 2.933 8.984 1.186 8.984 6.53 0 2.35-2.121 4.015-4.825 4.264v1.789h-2.392V23.33c-2.017-.353-3.806-1.352-4.783-2.516l1.497-1.768c1.248 1.31 3.1 2.08 5.137 2.08 1.747 0 2.766-.666 2.766-1.768z"/></g></svg>