<svg xmlns="http://www.w3.org/2000/svg" width="32" height="32"><g fill="none" fill-rule="evenodd"><circle cx="16" cy="16" r="16" fill="#3060BF"/><path fill="#FFF" fill-rule="nonzero" d="M8.256 15.301l.77-1.934h1.342c.908-2.585 3.217-4.42 6.375-4.42 1.46 0 2.664.315 3.513.907l-.849 1.796c-.69-.414-1.559-.651-2.664-.651-1.717 0-3.099.888-3.81 2.368h6.06l-.73 1.934H12.36c-.02.257-.04.672-.04.968 0 .118 0 .197.02.335h5.547l-.632 1.934h-4.46c.592 1.54 2.23 2.507 4.164 2.507.69 0 1.776-.217 2.408-.632l.592 1.836c-.553.454-1.895.829-3.06.829-3.355 0-5.703-1.638-6.63-4.54H8.294l.73-1.934c.928 0 .928-.02.928-.02 0-.059-.02-.217-.02-.355 0-.434.02-.69.04-.928H8.256z"/></g></svg>