<?xml version="1.0" encoding="utf-8"?>
<!-- Generator: Adobe Illustrator 27.5.0, SVG Export Plug-In . SVG Version: 6.00 Build 0)  -->
<svg version="1.1" id="Layer_1" xmlns="http://www.w3.org/2000/svg" xmlns:xlink="http://www.w3.org/1999/xlink" x="0px" y="0px"
	 viewBox="0 0 153 153" style="enable-background:new 0 0 153 153;" xml:space="preserve">
<style type="text/css">
	.st0{fill-rule:evenodd;clip-rule:evenodd;fill:#E8344A;}
	.st1{fill:#FFFFFF;}
</style>
<g>
	<circle class="st0" cx="76.5" cy="76.5" r="76.5"/>
	<path class="st1" d="M111,42c-9.2-9.2-21.4-14.3-34.5-14.3S51.2,32.8,42,42c-9.2,9.2-14.3,21.4-14.3,34.5c0,13,5.1,25.3,14.3,34.5
		c9.2,9.2,21.4,14.3,34.5,14.3s25.3-5.1,34.5-14.3c9.2-9.2,14.3-21.4,14.3-34.5C125.2,63.5,120.2,51.2,111,42z M51.9,40.9v31.1H33.5
		C34.8,59.2,41.8,48,51.9,40.9z M51.9,89.8H35.3C34.4,87,33.8,84,33.5,81h18.4V89.8z M39.4,98.7h12.5v13.4
		C46.8,108.6,42.6,104,39.4,98.7z M76.5,119.7c-5.6,0-10.9-1-15.7-3V98.7H81v-8.9H60.8V81l12,0c19.7,0,28.2-10.1,28.2-22.4
		c0-11.8-6.9-22.2-28.2-22.2L60,36.5c5.1-2.1,10.7-3.3,16.5-3.3c23.9,0,43.2,19.4,43.2,43.2S100.4,119.7,76.5,119.7z M60.8,72.1
		V45.4l12.5-0.1c12.2,0,17.5,5,17.5,13.6c0,8.7-6.1,13.2-18.3,13.2L60.8,72.1z"/>
</g>
</svg>
